<svg width="24" height="24" viewBox="0 0 18 18" fill="none" xmlns="http://www.w3.org/2000/svg">
    <path d="M16.4073 8.27641C15.5931 8.27641 14.9307 7.61523 14.9307 6.80252C14.9307 6.16961 15.3325 5.62873 15.8948 5.42032V3.39472H11.7268V4.5623H12.9206C13.2119 4.5623 13.448 4.79841 13.448 5.08964V6.27827H14.0607C14.3519 6.27827 14.588 6.51438 14.588 6.80562C14.588 7.09685 14.3519 7.33296 14.0607 7.33296H13.448V8.47188H14.0607C14.3519 8.47188 14.588 8.70799 14.588 8.99923C14.588 9.29046 14.3519 9.52657 14.0607 9.52657H13.448V10.6655H14.0607C14.3519 10.6655 14.588 10.9016 14.588 11.1928C14.588 11.4841 14.3519 11.7202 14.0607 11.7202H13.448V12.9088C13.448 13.2 13.2119 13.4362 12.9206 13.4362H11.7268V14.6053H15.8948V12.5797C15.3325 12.3713 14.9307 11.8304 14.9307 11.1975C14.9307 10.3848 15.5931 9.72359 16.4073 9.72359C17.2214 9.72359 17.8838 10.3848 17.8838 11.1975C17.8838 11.8191 17.4961 12.3517 16.9494 12.568V15.1326C16.9494 15.4239 16.7133 15.66 16.4221 15.66H11.1995C10.9082 15.66 10.6721 15.4239 10.6721 15.1326V13.4361H9.52775V15.1499C10.082 15.3624 10.4766 15.899 10.4766 16.5261C10.4766 17.3388 9.8142 18 9.00002 18C8.18584 18 7.52346 17.3388 7.52346 16.5261C7.52346 15.8987 7.91805 15.3619 8.47268 15.1496V13.4361H7.32792V15.1326C7.32792 15.4239 7.09181 15.66 6.80057 15.66H1.57794C1.2867 15.66 1.05059 15.4239 1.05059 15.1326V12.568C0.503984 12.3517 0.116211 11.8191 0.116211 11.1975C0.116211 10.3848 0.77859 9.72359 1.59277 9.72359C2.40696 9.72359 3.06934 10.3848 3.06934 11.1975C3.06934 11.8304 2.66757 12.3713 2.10528 12.5797V14.6053H6.27323V14.0618C6.27309 14.0569 6.27249 14.0521 6.27249 14.0471V13.4361H5.07939C4.78816 13.4361 4.55205 13.2 4.55205 12.9088V11.7201H3.93938C3.64815 11.7201 3.41204 11.484 3.41204 11.1928C3.41204 10.9016 3.64815 10.6655 3.93938 10.6655H4.55205V9.52654H3.93938C3.64815 9.52654 3.41204 9.29043 3.41204 8.99919C3.41204 8.70796 3.64815 8.47185 3.93938 8.47185H4.55205V7.33293H3.93938C3.64815 7.33293 3.41204 7.09682 3.41204 6.80558C3.41204 6.51435 3.64815 6.27824 3.93938 6.27824H4.55205V5.08961C4.55205 4.79837 4.78816 4.56226 5.07939 4.56226H6.27323V3.39469H2.10528V5.42029C2.66757 5.62869 3.06934 6.16957 3.06934 6.80249C3.06934 7.6152 2.40696 8.27638 1.59277 8.27638C0.77859 8.27634 0.116211 7.61516 0.116211 6.80249C0.116211 6.18082 0.503984 5.64824 1.05059 5.43199V2.86734C1.05059 2.57611 1.2867 2.34 1.57794 2.34H6.80057C7.09181 2.34 7.32792 2.57611 7.32792 2.86734V4.56226H8.47229V2.85005C7.91805 2.6376 7.52346 2.10101 7.52346 1.47389C7.52346 0.661184 8.18584 0 9.00002 0C9.8142 0 10.4766 0.661184 10.4766 1.47389C10.4766 2.10132 10.0816 2.63809 9.52698 2.8504V4.5623H10.6721V2.86738C10.6721 2.57614 10.9082 2.34004 11.1995 2.34004H16.4221C16.7133 2.34004 16.9494 2.57614 16.9494 2.86738V5.43203C17.4961 5.64827 17.8838 6.18089 17.8838 6.80256C17.8838 7.61523 17.2214 8.27641 16.4073 8.27641ZM16.4073 10.7783C16.1746 10.7783 15.9854 10.9663 15.9854 11.1975C15.9854 11.4286 16.1746 11.6167 16.4073 11.6167C16.6399 11.6167 16.8291 11.4286 16.8291 11.1975C16.8291 10.9663 16.6399 10.7783 16.4073 10.7783ZM1.59277 10.7783C1.36014 10.7783 1.1709 10.9663 1.1709 11.1975C1.1709 11.4286 1.36014 11.6167 1.59277 11.6167C1.8254 11.6167 2.01465 11.4286 2.01465 11.1975C2.01465 10.9663 1.82537 10.7783 1.59277 10.7783ZM1.59277 7.22173C1.8254 7.22173 2.01465 7.03368 2.01465 6.80252C2.01465 6.57137 1.8254 6.38332 1.59277 6.38332C1.36014 6.38332 1.1709 6.57137 1.1709 6.80252C1.1709 7.03368 1.36014 7.22173 1.59277 7.22173ZM9.00002 1.05469C8.76739 1.05469 8.57814 1.24274 8.57814 1.47389C8.57814 1.70504 8.76739 1.89309 9.00002 1.89309C9.23265 1.89309 9.42189 1.70504 9.42189 1.47389C9.42189 1.24274 9.23265 1.05469 9.00002 1.05469ZM9.00002 16.9453C9.23265 16.9453 9.42189 16.7573 9.42189 16.5261C9.42189 16.295 9.23265 16.1069 9.00002 16.1069C8.76739 16.1069 8.57814 16.295 8.57814 16.5261C8.57814 16.7573 8.76739 16.9453 9.00002 16.9453ZM9.52698 5.61698V5.78879C9.52698 6.08003 9.29087 6.31614 8.99963 6.31614C8.7084 6.31614 8.47229 6.08003 8.47229 5.78879V5.61698H7.32792V5.78879C7.32792 6.08003 7.09181 6.31614 6.80057 6.31614C6.50934 6.31614 6.27323 6.08003 6.27323 5.78879V5.61698H5.60674V6.27827H5.77893C6.07017 6.27827 6.30628 6.51438 6.30628 6.80562C6.30628 7.09685 6.07017 7.33296 5.77893 7.33296H5.60674V8.47188H5.77893C6.07017 8.47188 6.30628 8.70799 6.30628 8.99923C6.30628 9.29046 6.07017 9.52657 5.77893 9.52657H5.60674V10.6655H5.77893C6.07017 10.6655 6.30628 10.9016 6.30628 11.1928C6.30628 11.4841 6.07017 11.7202 5.77893 11.7202H5.60674V12.3815H6.27249V12.2123C6.27249 12.1029 6.30589 12.0012 6.36298 11.9169C6.45769 11.7764 6.61832 11.6839 6.80057 11.6839C7.09181 11.6839 7.32792 11.92 7.32792 12.2112V12.3815H8.47229V12.2123C8.47229 12.1028 8.50572 12.0011 8.56289 11.9168C8.65763 11.7763 8.81823 11.6839 9.00041 11.6839C9.29164 11.6839 9.52775 11.92 9.52775 12.2113V12.3815H10.6721V12.2113C10.6721 11.92 10.9082 11.6839 11.1995 11.6839C11.4907 11.6839 11.7268 11.92 11.7268 12.2113V12.3815H12.3933V11.7202H12.2206C11.9294 11.7202 11.6933 11.4841 11.6933 11.1929C11.6933 10.9016 11.9294 10.6655 12.2206 10.6655H12.3933V9.52661H12.2206C11.9294 9.52661 11.6933 9.2905 11.6933 8.99926C11.6933 8.70803 11.9294 8.47192 12.2206 8.47192H12.3933V7.333H12.2206C11.9294 7.333 11.6933 7.09689 11.6933 6.80565C11.6933 6.51442 11.9294 6.27831 12.2206 6.27831H12.3933V5.61702H11.7268V5.78883C11.7268 6.08006 11.4907 6.31617 11.1995 6.31617C10.9082 6.31617 10.6721 6.08006 10.6721 5.78883V5.61702L9.52698 5.61698ZM16.4073 7.22173C16.6399 7.22173 16.8291 7.03368 16.8291 6.80252C16.8291 6.57137 16.6399 6.38332 16.4073 6.38332C16.1746 6.38332 15.9854 6.57137 15.9854 6.80252C15.9854 7.03368 16.1747 7.22173 16.4073 7.22173Z" fill="white"/>
</svg>
