<svg xmlns="http://www.w3.org/2000/svg" xmlns:xlink="http://www.w3.org/1999/xlink" version="1.1" x="0px" y="0px" viewBox="0 0 1000 1000" enable-background="new 0 0 1000 1000" xml:space="preserve" width="24" height="24" stroke="none" fill="#fff">
    <g><g transform="translate(0.000000,511.000000) scale(0.100000,-0.100000)"><path d="M4633.5,5007.2c-1186.1-97-2291-609.9-3114.7-1451.4c-758.4-772.2-1233.6-1752.4-1394-2883C87.3,401.6,93.2-285.5,136.8-574.6C324.9-1820,950.6-2917,1916.8-3697.2c710.9-572.2,1558.3-932.6,2518.7-1069.2c295-41.6,958.3-31.7,1287.1,19.8c526.7,83.2,950.4,215.8,1425.7,449.5C8213.5-3778.4,9057-2877.4,9522.3-1768.6c164.3,394,269.3,776.2,340.6,1243.5c49.5,318.8,49.5,990,0,1316.8c-79.2,522.7-225.7,992-457.4,1465.3c-712.8,1459.3-2096.9,2459.3-3752.2,2712.7C5449.3,4999.3,4831.5,5023.1,4633.5,5007.2z M4435.5,4599.3C3887,4140,3415.8,3532.1,3071.2,2847l-110.9-223.7h-910.8h-910.8l103,144.5c152.5,213.9,328.7,417.8,534.6,619.8c245.5,241.6,396,360.4,677.2,546.5c562.3,368.3,1120.7,586.1,1809.8,708.9C4550.3,4692.4,4548.4,4692.4,4435.5,4599.3z M5884.9,4621.1c611.8-116.8,1251.4-384.1,1738.5-728.7c445.5-314.8,932.6-811.8,1182.1-1207.8l39.6-61.4h-902.9h-902.9L6928.4,2847c-344.5,687.1-770.3,1233.6-1354.4,1744.4l-108.9,95.1l108.9-13.9C5633.4,4664.7,5774,4640.9,5884.9,4621.1z M4841.4,3553.9v-930.6h-784.1h-782.1l83.2,154.4C3724.7,3445,4136.5,3945.9,4681,4381.5c71.3,57.4,136.6,103,144.6,103C4833.5,4484.5,4841.4,4066.7,4841.4,3553.9z M5356.2,4351.8c431.7-344.5,924.7-924.7,1182.1-1392c33.7-59.4,89.1-160.4,122.8-221.8l63.3-114.8h-782.1h-784.1v930.6c0,512.8,7.9,930.6,15.8,930.6S5265.1,4425.1,5356.2,4351.8z M2821.7,2280.7c0-4-27.7-85.2-61.4-184.2C2592,1605.5,2445.5,831.3,2445.5,437.2c0-188.1,104.9-170.3-1031.6-170.3H406v75.2c0,118.8,37.6,413.8,79.2,639.6c73.3,392.1,225.7,849.5,394,1182.1l61.4,122.8h940.5C2398,2286.6,2821.7,2284.6,2821.7,2280.7z M4837.5,1282.7l-5.9-1005.9l-1057.4-5.9l-1057.4-4l11.9,231.7c23.8,471.3,116.8,946.5,285.1,1457.3l108.9,330.7h859.4h859.3L4837.5,1282.7z M6985.8,1955.9c168.3-510.9,259.4-970.2,285.1-1449.4l11.9-239.6l-1057.3,4l-1057.4,5.9l-5.9,1005.9l-4,1003.9h859.3h859.4L6985.8,1955.9z M9142.1,2094.5c247.5-532.6,390.1-1073.2,443.5-1675.1l11.9-152.5l-1015.8,4L7564,276.8l-4,108.9c-23.8,540.6-146.5,1196-322.7,1710.8c-31.7,99-59.4,180.2-59.4,184.2c0,4,421.7,5.9,938.6,5.9H9053L9142.1,2094.5z M2433.6-111.3c5.9-33.7,11.9-112.9,11.9-174.2c0-380.2,140.6-1108.8,304.9-1590l65.3-194h-934.6H946.6l-89.1,194C614-1350.8,459.5-774.6,415.9-222.1L402.1-49.9h1009.8h1007.9L2433.6-111.3z M4837.5-1063.7l4-1005.9H3992h-851.4l-41.6,114.8c-219.8,576.2-374.2,1312.8-376.2,1792v112.9l1055.4-4l1053.4-5.9L4837.5-1063.7z M7276.9-162.7c0-437.6-164.3-1239.5-356.4-1742.5l-63.4-164.3h-849.5h-849.4v996c0,548.5,5.9,1003.9,13.9,1009.8c5.9,7.9,483.1,13.9,1059.3,13.9h1045.5V-162.7z M9593.6-107.3c0-116.8-43.6-473.3-81.2-669.3c-75.3-388.1-227.7-843.5-392.1-1170.2l-61.4-122.8h-938.6h-936.6l65.3,194c166.3,487.1,304.9,1219.7,304.9,1621.7c0,63.4,5.9,134.6,11.9,160.4l11.9,43.6h1007.8h1007.9V-107.3z M3089-2679.4c166.3-324.7,461.4-772.2,689.1-1043.5c166.3-194,463.3-495,657.4-659.4l99-85.1l-108.9,11.9c-334.6,37.6-801.9,158.4-1156.4,299c-352.5,140.6-805.9,402-1128.6,655.4c-299,235.6-845.5,833.6-960.3,1051.4l-23.8,43.6h897h897L3089-2679.4z M4841.4-3336.8c0-512.8-7.9-930.6-15.8-930.6c-33.7,0-360.4,277.2-548.5,465.3c-217.8,217.8-405.9,443.5-582.1,702.9c-124.8,180.2-344.5,556.4-378.2,641.6l-19.8,51.5h772.2h772.2V-3336.8z M6677-2459.6c-55.4-128.7-205.9-388.1-340.6-590.1c-194-291.1-374.2-510.9-613.8-752.4c-190.1-190.1-514.8-465.3-548.5-465.3c-7.9,0-15.8,417.8-15.8,930.6v930.6h772.2h772.2L6677-2459.6z M8841.2-2418c0-49.5-304.9-431.7-534.6-669.3c-580.2-600-1336.5-1035.6-2166.2-1249.4c-225.7-57.4-645.5-134.6-661.3-120.8c-2,3.9,65.3,63.3,150.5,136.6c489.1,411.9,968.3,1027.7,1283.1,1647.4l136.6,267.3h897C8437.2-2406.2,8841.2-2412.1,8841.2-2418z"/></g></g>
    </svg>
